<?xml version="1.0" encoding="utf-8"?>
<!-- Generator: Adobe Illustrator 24.0.1, SVG Export Plug-In . SVG Version: 6.00 Build 0)  -->
<svg version="1.1" id="Layer_1" xmlns="http://www.w3.org/2000/svg" xmlns:xlink="http://www.w3.org/1999/xlink" x="0px" y="0px"
	 viewBox="0 0 406 306" style="enable-background:new 0 0 406 306;" xml:space="preserve">
<style type="text/css">
	.st0{opacity:0.24;fill:#CFBFA8;enable-background:new    ;}
	.st1{fill:#CFBFA8;}
	.st2{opacity:0.26;fill:url(#SVGID_1_);enable-background:new    ;}
	.st3{fill:url(#SVGID_2_);}
	.st4{fill:#FFFFFF;}
	.st5{opacity:0.26;fill:url(#SVGID_3_);enable-background:new    ;}
	.st6{fill:url(#SVGID_4_);}
	.st7{opacity:0.52;}
	.st8{fill:url(#SVGID_5_);}
	.st9{opacity:0.26;fill:url(#SVGID_6_);enable-background:new    ;}
	.st10{fill:url(#SVGID_7_);}
	.st11{opacity:0.58;fill:#CFBFA8;enable-background:new    ;}
	.st12{opacity:0.24;}
	.st13{fill:url(#SVGID_8_);}
	.st14{fill:#606161;}
	.st15{opacity:0.26;fill:url(#SVGID_9_);enable-background:new    ;}
	.st16{fill:url(#SVGID_10_);}
	.st17{fill:url(#SVGID_11_);}
	.st18{fill:url(#SVGID_12_);}
	.st19{opacity:0.26;fill:url(#SVGID_13_);enable-background:new    ;}
	.st20{opacity:0.26;fill:url(#SVGID_14_);enable-background:new    ;}
	.st21{opacity:0.26;fill:url(#SVGID_15_);enable-background:new    ;}
	.st22{fill:#8B877E;}
	.st23{font-family:'PingFang-SC-Bold';}
	.st24{font-size:12px;}
</style>
<title>Code javascript</title>
<path class="st0" d="M19.3,251.7c-6.9-8.2-13-17.4-16.1-27.7c-7-23.1,1.3-47.9,11.6-69.7c9.9-20.9,27.2-48.2,27.6-71.8
	c0.1-4.3-1.1-8.5-1.7-12.7c-2.8-18.6,3.2-37.5,16.2-51.1C67.1,8.2,80.7,1.8,95.3,0.6c45.6-4.2,95,14.6,123.7,18.4
	c33.2,4.4,67.1-6,100.2-0.8c29.4,4.7,57.9-9,73.2,16.5c15.3,25.6,16.9,90,5.5,117.5c-4.2,10.2-10.3,19.6-13.1,30.3
	c-3.1,11.7-2.3,24.1-0.1,36c1.7,9.5,4.1,19.2,2.8,28.7c-1.5,11.4-8.2,21.6-16.3,29.7c-22.6,22.4-56.3,30.7-88,28.8
	c-31.7-1.9-62.2-12.9-91.9-24.3c-7.1-2.7-14.3-5.5-21.8-6.8c-8.6-1.4-17.4-0.9-26.1-0.1c-24.4,2.1-49.9,9.5-74.2,9.9
	C50,284.8,30.8,265.2,19.3,251.7z"/>
<path class="st1" d="M66,138.4c0,0-4.7,10.2-5.6,19.5c-0.9,9.2,4.4,22.4,4.4,22.4l3.4-15.4L66,138.4z"/>
<linearGradient id="SVGID_1_" gradientUnits="userSpaceOnUse" x1="152.5582" y1="213.6969" x2="163.0771" y2="213.6969" gradientTransform="matrix(0.7531 0 0 -0.7531 -54.5463 320.1851)">
	<stop  offset="0" style="stop-color:#010101;stop-opacity:0"/>
	<stop  offset="0.95" style="stop-color:#010101"/>
</linearGradient>
<path class="st2" d="M66,138.4c0,0-4.7,10.2-5.6,19.5c-0.9,9.2,4.3,22.2,4.3,22.2l3.5-15.1L66,138.4z"/>
<path class="st1" d="M290.1,143.9c0.4-2.3,0.9-4.6,1.3-6.9c0.2-1.3,0.5-2.6,0.8-4c2.1,0.4,4.2,0.7,6.3,1.1c0.6,0.2,1.2-0.1,1.4-0.6
	v-0.1c0.9-1.8,2-3.6,3.1-5.3c0.4-0.4,0.4-1.1,0-1.5l0,0c-1.4-1.6-2.7-3.2-4.2-5l9-7.5c1.4,1.6,2.8,3.3,4.1,4.9
	c0.3,0.5,1,0.7,1.6,0.4c0,0,0.1,0,0.1-0.1c1.8-0.8,3.7-1.5,5.6-2c0.9-0.2,1.1-0.6,1.1-1.4c0-2.1,0-4.1,0-6.2H332c0,2.1,0,4.2,0,6.3
	c0,0.8,0.2,1.2,1.1,1.4c1.9,0.6,3.7,1.3,5.6,2c0.5,0.3,1.2,0.2,1.6-0.3c0,0,0-0.1,0.1-0.1c1.3-1.6,2.7-3.2,4.1-4.9l9,7.5l-4.6,5.5
	c1.3,2.3,2.4,4.5,3.7,6.6c0.3,0.3,0.7,0.4,1.1,0.3c2.1-0.3,4.2-0.7,6.4-1.1c0.7,3.9,1.4,7.6,2,11.6c-2.2,0.4-4.3,0.8-6.4,1.2
	c-0.3,0.1-0.9,0.4-0.9,0.7c-0.4,2.4-0.8,4.9-1.1,7.5l6.2,3.6l-5.9,10.2l-6.2-3.6c-2,1.6-4,3.1-5.9,4.7c-0.2,0.3-0.3,0.7-0.2,1
	c0.7,2.1,1.5,4.1,2.3,6.3l-11,4c-0.7-1.9-1.4-3.7-2-5.6c-0.3-1.1-0.8-1.4-2-1.3c-1.9,0.1-3.8,0.1-5.7,0c-0.5-0.1-1,0.2-1.2,0.7l0,0
	c-0.7,2-1.4,4-2.3,6.1l-11-4.1l2.5-6.8l-6.2-5.3l-6.3,3.6l-5.9-10.2c1.9-1.1,3.8-2.2,5.6-3.2c0.5-0.2,0.8-0.8,0.6-1.3c0,0,0,0,0-0.1
	c-0.4-1.9-0.8-3.8-1-5.7c-0.1-0.9-0.3-1.4-1.4-1.5c-2-0.2-4.1-0.7-6.1-1L290.1,143.9z M326,129.9c-8.1-0.2-14.9,6.4-15.2,14.7
	c-0.3,8.2,6.4,15.1,14.9,15.3c8.3,0.1,15.1-6.6,15.1-14.8C341,136.8,334.3,130,326,129.9z"/>
<linearGradient id="SVGID_2_" gradientUnits="userSpaceOnUse" x1="535.002" y1="234.2965" x2="359.032" y2="224.8665" gradientTransform="matrix(0.7531 0 0 -0.7531 -54.5463 320.1851)">
	<stop  offset="0" style="stop-color:#010101;stop-opacity:0"/>
	<stop  offset="0.95" style="stop-color:#010101"/>
</linearGradient>
<path class="st3" d="M290.1,143.9c0.4-2.3,0.9-4.6,1.3-6.9c0.2-1.3,0.5-2.6,0.8-4c2.1,0.4,4.2,0.7,6.3,1.1c0.6,0.2,1.2-0.1,1.4-0.6
	v-0.1c0.9-1.8,2-3.6,3.1-5.3c0.4-0.4,0.4-1.1,0-1.5l0,0c-1.4-1.6-2.7-3.2-4.2-5l9-7.5c1.4,1.6,2.8,3.3,4.1,4.9
	c0.3,0.5,1,0.7,1.6,0.4c0,0,0.1,0,0.1-0.1c1.8-0.8,3.7-1.5,5.6-2c0.9-0.2,1.1-0.6,1.1-1.4c0-2.1,0-4.1,0-6.2H332c0,2.1,0,4.2,0,6.3
	c0,0.8,0.2,1.2,1.1,1.4c1.9,0.6,3.7,1.3,5.6,2c0.5,0.3,1.2,0.2,1.6-0.3c0,0,0-0.1,0.1-0.1c1.3-1.6,2.7-3.2,4.1-4.9l9,7.5l-4.6,5.5
	c1.3,2.3,2.4,4.5,3.7,6.6c0.3,0.3,0.7,0.4,1.1,0.3c2.1-0.3,4.2-0.7,6.4-1.1c0.7,3.9,1.4,7.6,2,11.6c-2.2,0.4-4.3,0.8-6.4,1.2
	c-0.3,0.1-0.9,0.4-0.9,0.7c-0.4,2.4-0.8,4.9-1.1,7.5l6.2,3.6l-5.9,10.2l-6.2-3.6c-2,1.6-4,3.1-5.9,4.7c-0.2,0.3-0.3,0.7-0.2,1
	c0.7,2.1,1.5,4.1,2.3,6.3l-11,4c-0.7-1.9-1.4-3.7-2-5.6c-0.3-1.1-0.8-1.4-2-1.3c-1.9,0.1-3.8,0.1-5.7,0c-0.5-0.1-1,0.2-1.2,0.7l0,0
	c-0.7,2-1.4,4-2.3,6.1l-11-4.1l2.5-6.8l-6.2-5.3l-6.3,3.6l-5.9-10.2c1.9-1.1,3.8-2.2,5.6-3.2c0.5-0.2,0.8-0.8,0.6-1.3c0,0,0,0,0-0.1
	c-0.4-1.9-0.8-3.8-1-5.7c-0.1-0.9-0.3-1.4-1.4-1.5c-2-0.2-4.1-0.7-6.1-1L290.1,143.9z M326,129.9c-8.1-0.2-14.9,6.4-15.2,14.7
	c-0.3,8.2,6.4,15.1,14.9,15.3c8.3,0.1,15.1-6.6,15.1-14.8C341,136.8,334.3,130,326,129.9z"/>
<path class="st1" d="M102.6,61.8h203c6.7,0,12.1,5.4,12.1,12.1v122.7c0,6.7-5.4,12.1-12.1,12.1h-203c-6.7,0-12.1-5.4-12.1-12.1V73.8
	C90.5,67.2,95.9,61.8,102.6,61.8z"/>
<path class="st4" d="M107.3,67.4h191.6c6.3,0,11.4,5.1,11.4,11.4v115.8c0,6.3-5.1,11.4-11.4,11.4H107.3c-6.3,0-11.4-5.1-11.4-11.4
	V78.8C95.9,72.5,101,67.4,107.3,67.4z"/>
<linearGradient id="SVGID_3_" gradientUnits="userSpaceOnUse" x1="206.4713" y1="199.6563" x2="201.4113" y2="218.4463" gradientTransform="matrix(0.7531 0 0 -0.7531 -54.5463 320.1851)">
	<stop  offset="0" style="stop-color:#010101;stop-opacity:0"/>
	<stop  offset="0.95" style="stop-color:#010101"/>
</linearGradient>
<path class="st5" d="M90.5,171.3l5.6-2.3c0,0,8.1-4.8,8.7-6.6c0.3-1,0.6-2,0.7-3.1l2-1.6c0.4-0.9,0.5-1.8,0.3-2.7
	c-0.4-1.4-17.3,11.4-17.3,11.4V171.3z"/>
<path class="st1" d="M107.7,157c-0.6,0-1.2-0.2-1.6-0.5c-1.2-0.9-1.2-2.9-1.2-3.9c0-0.5,0.2-0.9,0.5-1.2c0.9-0.9,3-0.9,3.3-0.9v1.3
	c-0.8-0.1-1.6,0.1-2.3,0.5c-0.1,0.1-0.1,0.2-0.1,0.3c0,0.8,0.1,2.4,0.8,3c0.4,0.2,0.8,0.3,1.2,0.2l0.2,1.2
	C108.1,157,107.9,157,107.7,157z"/>
<linearGradient id="SVGID_4_" gradientUnits="userSpaceOnUse" x1="211.4468" y1="221.2026" x2="220.5567" y2="220.8026" gradientTransform="matrix(0.7531 0 0 -0.7531 -54.5463 320.1851)">
	<stop  offset="0" style="stop-color:#FFFFFF;stop-opacity:0"/>
	<stop  offset="0.95" style="stop-color:#FFFFFF"/>
</linearGradient>
<path class="st6" d="M107.7,157c-0.6,0-1.2-0.2-1.6-0.5c-1.2-0.9-1.2-2.9-1.2-3.9c0-0.5,0.2-0.9,0.5-1.2c0.9-0.9,3-0.9,3.3-0.9v1.3
	c-0.8-0.1-1.6,0.1-2.3,0.5c-0.1,0.1-0.1,0.2-0.1,0.3c0,0.8,0.1,2.4,0.8,3c0.4,0.2,0.8,0.3,1.2,0.2l0.2,1.2
	C108.1,157,107.9,157,107.7,157z"/>
<g class="st7">
	<rect x="126.6" y="80.7" class="st1" width="50.9" height="3.7"/>
	<rect x="126.6" y="87.9" class="st1" width="31.1" height="3.5"/>
	<rect x="170.2" y="87.9" class="st1" width="97.7" height="3.5"/>
	<rect x="142.8" y="95.1" class="st1" width="42.7" height="3.7"/>
	<rect x="156.5" y="102.4" class="st1" width="50.9" height="3.7"/>
	<rect x="210.7" y="102.4" class="st1" width="42.7" height="4.1"/>
	<rect x="156.4" y="109.6" class="st1" width="39.3" height="3.5"/>
	<rect x="199.5" y="109.6" class="st1" width="81.1" height="3.9"/>
	<rect x="126.6" y="119.4" class="st1" width="50.9" height="3.7"/>
	<rect x="126.6" y="126.6" class="st1" width="31.1" height="3.5"/>
	<rect x="170.2" y="126.6" class="st1" width="97.7" height="3.5"/>
	<rect x="142.8" y="133.8" class="st1" width="42.7" height="3.7"/>
	<rect x="156.5" y="141" class="st1" width="50.9" height="3.7"/>
	<rect x="210.7" y="141" class="st1" width="42.7" height="4.1"/>
	<rect x="156.4" y="148.3" class="st1" width="39.3" height="3.5"/>
	<rect x="199.5" y="148.3" class="st1" width="81.1" height="3.9"/>
	<rect x="126.6" y="158" class="st1" width="50.9" height="3.7"/>
	<rect x="126.6" y="165.3" class="st1" width="31.1" height="3.5"/>
	<rect x="170.2" y="165.3" class="st1" width="97.7" height="3.5"/>
	<rect x="142.8" y="172.5" class="st1" width="42.7" height="3.7"/>
	<rect x="156.5" y="179.7" class="st1" width="50.9" height="3.7"/>
	<rect x="210.7" y="179.7" class="st1" width="42.7" height="4.1"/>
	<rect x="156.4" y="186.9" class="st1" width="39.3" height="3.5"/>
	<rect x="199.5" y="186.9" class="st1" width="81.1" height="3.9"/>
</g>
<polygon class="st1" points="97.8,207.5 55.5,239.2 351.2,239.2 309.9,207 "/>
<linearGradient id="SVGID_5_" gradientUnits="userSpaceOnUse" x1="320.4688" y1="171.7149" x2="321.0988" y2="102.5847" gradientTransform="matrix(0.7531 0 0 -0.7531 -38.4232 321.5406)">
	<stop  offset="0" style="stop-color:#FFFFFF;stop-opacity:0"/>
	<stop  offset="0.95" style="stop-color:#FFFFFF"/>
</linearGradient>
<polygon class="st8" points="97.8,207.5 55.5,239.2 351.2,239.2 309.9,207 "/>
<linearGradient id="SVGID_6_" gradientUnits="userSpaceOnUse" x1="187.034" y1="130.3435" x2="176.544" y2="87.8035" gradientTransform="matrix(0.7531 0 0 -0.7531 -54.5463 320.1851)">
	<stop  offset="0" style="stop-color:#010101;stop-opacity:0"/>
	<stop  offset="0.95" style="stop-color:#010101"/>
</linearGradient>
<path class="st9" d="M73.3,229.3l27,2.6c0.7,0.1,1.4,0.2,1.7,0.8c0.2,0.6,0,1.4-0.6,1.7s-1.3,0.4-1.9,0.4L71,235.9
	c-1.4,0.2-2.7,0-4-0.5c-1.2-0.6-2.2-2.1-1.7-3.4c0.6-1.5,2.5-1.8,4.1-1.9"/>
<polygon class="st1" points="67.6,250.9 55.5,239.2 351.2,239.2 340.3,251.6 "/>
<linearGradient id="SVGID_7_" gradientUnits="userSpaceOnUse" x1="317.8783" y1="80.5706" x2="329.8183" y2="189.2906" gradientTransform="matrix(0.7531 0 0 -0.7531 -38.4232 321.5406)">
	<stop  offset="0" style="stop-color:#010101;stop-opacity:0"/>
	<stop  offset="0.95" style="stop-color:#010101"/>
</linearGradient>
<polygon class="st10" points="67.6,250.9 55.5,239.2 351.2,239.2 340.3,251.6 "/>
<polygon class="st11" points="82.6,222.5 321.8,222.2 309,211.7 97.3,211.7 "/>
<g class="st12">
	<path class="st1" d="M276.4,30.2V74c0,5.4-4.3,9.7-9.7,9.7h-46.1L207,97.3l-10.6-13.6h-47.2c-5.4,0-9.7-4.3-9.7-9.7l0,0V30.2
		c0-5.3,4.3-9.7,9.7-9.7h117.6C272,20.5,276.3,24.8,276.4,30.2z"/>
</g>
<path class="st4" d="M72,14.7h274.7c12.6,0,22.7,4.3,22.7,9.7v43.8c0,5.4-10,9.7-22.7,9.7H72c-12.6,0-22.7-4.3-22.7-9.7V24.4
	C49.4,19,59.7,14.7,72,14.7z"/>
<polygon class="st11" points="170.1,234.3 182.7,224.3 228.8,224.1 242,234 "/>
<polygon class="st4" points="194.1,75.2 206.9,91.6 222.5,75.9 "/>
<linearGradient id="SVGID_8_" gradientUnits="userSpaceOnUse" x1="449.6678" y1="285.6263" x2="447.7477" y2="229.1263" gradientTransform="matrix(-0.7531 0 0 -0.7531 449.1079 320.1851)">
	<stop  offset="0" style="stop-color:#FFFFFF;stop-opacity:0"/>
	<stop  offset="0.95" style="stop-color:#FFFFFF"/>
</linearGradient>
<polygon class="st13" points="123.6,125.2 107.4,120.9 99.2,140.1 101.9,145.4 113,144.8 "/>
<path class="st14" d="M86.9,173.4L83.7,228l-5.9,0.9L75,187.4l-2.4,41.3l-5.9,0.2c0,0-2.7-41.7-2.1-44.8c0.6-3.1,0-12.8,0-12.8
	L86.9,173.4z"/>
<path class="st1" d="M87.9,168.1c2.9-1.7,5.7-9.1,4.4-10.9c-1.5-2.2-3.7-17.1-5.7-18.8c-1.9-1.8-4.4-2.8-7-2.9
	c-3.1,0.1-6.4-1.3-9.3-0.2c-1.6,0.8-3,1.8-4.3,3c-2,1.8-3.6,32.7-1.3,36c2.9,4.3,9,4.4,14.1,4.1c1.8-0.1,3.6-0.2,5.1-1.1
	C87.8,175.2,88.3,172.7,87.9,168.1z"/>
<path class="st1" d="M99.8,154.8c0.4-0.2,0.9-0.3,1.4-0.2c0.3,0.1,0.5,0.3,0.7,0.5c0.9,1,1.7,2.1,2.2,3.4c0.3,0.6,0.4,1.3,0.2,1.9
	c-0.3,0.7-0.9,1.2-1.6,1.5c-4.5,2.6-10,6.4-15.2,5.9c-0.4,0-0.2-1.1-0.5-1.4c-0.3-0.4-0.5-0.8-0.5-1.3c-0.2-1.7-0.3-3.3-0.2-5
	c0.1-1.7,0.8-3.3,2-4.5c0.4-0.5,1.1-0.8,1.7-0.9c1-0.1,0.9,0.8,1.5,1.1c0.8,0.4,1.8,0.5,2.7,0.4C96.1,156.1,98,155.6,99.8,154.8z"/>
<linearGradient id="SVGID_9_" gradientUnits="userSpaceOnUse" x1="498.162" y1="193.1944" x2="468.602" y2="226.4244" gradientTransform="matrix(-0.7531 0 0 -0.7531 449.1079 320.1851)">
	<stop  offset="0" style="stop-color:#010101;stop-opacity:0"/>
	<stop  offset="0.95" style="stop-color:#010101"/>
</linearGradient>
<path class="st15" d="M81.6,151.2c0,0,1.7,13.5,6.3,16.9c0,0,1.6,8.4-5.6,9.8c-1.8,0.6-3.6,0.8-5.5,0.5c0,0,7,2.1,5.7-11.9
	S81.6,151.2,81.6,151.2z"/>
<path class="st14" d="M88,231.7c0.2,0.2,0.3,0.4,0.3,0.7c0,0.2-0.1,0.4-0.3,0.5c-0.5,0.4-1.2,0.7-1.9,0.8c-2.2,0.3-4.4,0.2-6.6-0.4
	c-0.5-0.1-1-0.4-1.4-0.8c-0.4-0.6-0.6-1.3-0.5-1.9l-0.1-2.4c0-0.2,0-0.4,0.1-0.5c0.2-0.4,0.8-0.5,1.2-0.6c1.1-0.1,2.2-0.1,3.4-0.1
	c0.4,0,0.9-0.1,1.2,0.2c0.3,0.3,0.4,0.8,0.6,1C85.2,229.6,86.8,230.5,88,231.7z"/>
<path class="st14" d="M76.7,231.7c0.2,0.2,0.3,0.4,0.3,0.7c0,0.2-0.1,0.4-0.3,0.5c-0.5,0.4-1.1,0.7-1.8,0.7
	c-2.1,0.3-4.3,0.2-6.3-0.4c-0.5-0.1-1-0.3-1.4-0.7c-0.4-0.6-0.6-1.2-0.5-1.9l-0.1-2.3c0-0.2,0-0.4,0.1-0.5c0.2-0.4,0.7-0.5,1.2-0.6
	c1.1-0.1,2.2-0.1,3.3-0.1c0.4-0.1,0.8,0,1.2,0.2c0.2,0.2,0.4,0.8,0.6,1C74,229.7,75.6,230.5,76.7,231.7z"/>
<linearGradient id="SVGID_10_" gradientUnits="userSpaceOnUse" x1="167.0473" y1="254.0484" x2="180.1572" y2="254.0484" gradientTransform="matrix(0.7531 0 0 -0.7531 -54.5463 320.1851)">
	<stop  offset="0" style="stop-color:#E5C6D6"/>
	<stop  offset="0.42" style="stop-color:#EAD4D0"/>
	<stop  offset="1" style="stop-color:#F0E9CB"/>
</linearGradient>
<path class="st16" d="M72.8,135.3c0,0.5,0.3,0.9,0.6,1.2c0.3,0.1,0.6,0.2,0.9,0.2c1.1,0.1,2.3,0.2,3.4,0.1c0.1,0,0.2,0,0.2-0.1
	c0.1,0,0.1-0.1,0.1-0.2c0.4-1.2-0.4-2.8,0.4-3.9c0.5-0.7,1.5-0.9,2-1.5c0.7-0.8,0.7-1.8,0.6-2.8l-0.2-4.6c0-0.4-0.1-0.8-0.2-1.1
	c-0.3-0.5-0.8-0.8-1.4-0.9c-1.4-0.6-3-0.9-4.5-0.8c-0.4,0-0.7,0.1-1,0.3c-0.3,0.2-0.6,0.5-0.8,0.8c-0.6,0.7-1.1,1.4-1.4,2.3
	c-0.2,1-0.3,2.1-0.1,3.2c0.1,1.3,0.4,2.6,0.8,3.9C72.6,132.6,72.5,134,72.8,135.3z"/>
<path class="st14" d="M82.4,117.8c-0.5-1.8-2.7-3.1-4.5-2.3c-0.5,0.2-0.9,0.5-1.4,0.8c-0.9,0.5-1.9,0.7-2.8,1.1
	c-2.2,1.1-3.7,3.2-4.1,5.6s-0.2,4.8,0.6,7.1c0.2,0.7,0.5,1.3,1,1.9c0.9,0.7,1.9,1.1,3,1.1c0.9,0.3,1.9-0.1,2.3-1
	c0.1-0.3,0.1-0.6,0.1-1c0.1-0.3,0-0.6-0.1-0.9c-0.1-0.2-0.3-0.4-0.5-0.5c-0.5-0.3-0.9-0.8-1.1-1.4c-0.1-0.6,0.2-1.3,0.8-1.4
	s1.1,0.8,1.3,1.4c0.3-0.3,0.4-0.8,0.3-1.2c-0.1-0.4-0.2-0.8-0.3-1.3c-0.1-1.9,2.3-2.3,3.4-3.1C81.9,121.6,82.9,119.7,82.4,117.8z"/>
<path class="st1" d="M109.9,149.2h4.9c0.9,0,1.6,0.7,1.6,1.6v6c0,0.9-0.7,1.6-1.6,1.6h-4.9c-0.9,0-1.6-0.7-1.6-1.6v-6
	C108.3,149.9,109,149.2,109.9,149.2z"/>
<linearGradient id="SVGID_11_" gradientUnits="userSpaceOnUse" x1="200.8172" y1="213.6624" x2="199.6372" y2="231.1024" gradientTransform="matrix(0.7531 0 0 -0.7531 -38.4232 321.5406)">
	<stop  offset="0" style="stop-color:#FFFFFF;stop-opacity:0"/>
	<stop  offset="0.95" style="stop-color:#FFFFFF"/>
</linearGradient>
<path class="st17" d="M109.9,149.2h4.9c0.9,0,1.6,0.7,1.6,1.6v6c0,0.9-0.7,1.6-1.6,1.6h-4.9c-0.9,0-1.6-0.7-1.6-1.6v-6
	C108.3,149.9,109,149.2,109.9,149.2z"/>
<linearGradient id="SVGID_12_" gradientUnits="userSpaceOnUse" x1="206.8887" y1="218.9015" x2="215.2522" y2="218.9015" gradientTransform="matrix(0.7531 0 0 -0.7531 -54.5463 320.1851)">
	<stop  offset="0" style="stop-color:#E5C6D6"/>
	<stop  offset="0.42" style="stop-color:#EAD4D0"/>
	<stop  offset="1" style="stop-color:#F0E9CB"/>
</linearGradient>
<path class="st18" d="M103.5,152.8c0.2-0.3,0.6-0.5,0.9-0.5c0.2,0,0.3,0.1,0.5,0.1c0.4,0,0.8,0,1.1-0.1c0.4-0.1,0.8,0,1.1,0.2
	c0.1,0.2,0.2,0.4,0.2,0.6l0.2,2.4c0,0.2,0,0.3,0,0.5s-0.1,0.3-0.2,0.5c-0.1,0.3-0.2,0.5-0.4,0.8c-0.4,0.4-0.9,0.8-1.4,0.9
	c-0.6,0.1-1.1,0.2-1.7,0.2h-0.9c-0.1,0-0.3,0-0.4,0c-0.3-0.1-0.5-0.4-0.6-0.7c-0.2-0.3-0.3-0.6-0.4-0.9c-0.1-0.5-0.1-1-0.2-1.5
	c-0.1-0.3-0.1-0.6,0.2-0.8C102.2,154.1,102.9,153.5,103.5,152.8z"/>
<linearGradient id="SVGID_13_" gradientUnits="userSpaceOnUse" x1="221.5328" y1="229.7242" x2="221.6229" y2="225.4842" gradientTransform="matrix(0.7531 0 0 -0.7531 -54.5463 320.1851)">
	<stop  offset="0" style="stop-color:#010101;stop-opacity:0"/>
	<stop  offset="0.89" style="stop-color:#010101"/>
</linearGradient>
<path class="st19" d="M115.8,150c0,0.1-0.1,0.2-0.3,0.3c-2.1,0.5-4.2,0.5-6.3,0c-0.2-0.1-0.3-0.2-0.3-0.3c0-0.3,1.5-0.7,3.5-0.7
	S115.8,149.7,115.8,150z"/>
<linearGradient id="SVGID_14_" gradientUnits="userSpaceOnUse" x1="221.5676" y1="227.8544" x2="221.6175" y2="225.3244" gradientTransform="matrix(0.7531 0 0 -0.7531 -54.5463 320.1851)">
	<stop  offset="0" style="stop-color:#010101;stop-opacity:0"/>
	<stop  offset="0.89" style="stop-color:#010101"/>
</linearGradient>
<path class="st20" d="M115.5,150.3c-2.1,0.5-4.2,0.5-6.3,0C111.3,149.8,113.4,149.8,115.5,150.3z"/>
<linearGradient id="SVGID_15_" gradientUnits="userSpaceOnUse" x1="214.1647" y1="253.0771" x2="276.8447" y2="204.7571" gradientTransform="matrix(0.7531 0 0 -0.7531 -54.5463 320.1851)">
	<stop  offset="0" style="stop-color:#010101;stop-opacity:0"/>
	<stop  offset="0.95" style="stop-color:#010101"/>
</linearGradient>
<path class="st21" d="M105.7,144.1c-2.6-4-3.3-9.5-0.8-13.7c0.8-1.3,1.9-2.5,2.4-4c0.7-2,0.3-4.2,0.5-6.3c0-0.9,0.3-1.8,0.9-2.5
	c0.5-0.6,1.2-1,2-1.2c3.1-0.8,6.6,2.1,6.3,5.3c-0.2,2.9-2.9,5.2-2.6,8.1c0.3,3.5,4.7,5.9,4.3,9.4c-0.3,2.5-3.1,4.2-3,6.7
	c0.1,1.2,0.9,2.6,0.2,3.6c-0.9,1.4-5.5,1.4-6.7,0.5C107.8,148.8,106.7,145.5,105.7,144.1z"/>
<text transform="matrix(1 0 0 1 78.0977 44.2754)" class="st22 st23 st24">“数据创造价值”活动将于732个Era开始计算奖励，</text>
<text transform="matrix(1 0 0 1 78.0977 62.2975)" class="st22 st23 st24">现在你可以提前准备需要存储的文件。</text>
</svg>
