<?xml version="1.0" encoding="utf-8"?>
<!-- Generator: Adobe Illustrator 24.0.1, SVG Export Plug-In . SVG Version: 6.00 Build 0)  -->
<svg version="1.1" id="tucen_1" xmlns="http://www.w3.org/2000/svg" xmlns:xlink="http://www.w3.org/1999/xlink" x="0px" y="0px"
	 viewBox="0 0 1028 1028" style="enable-background:new 0 0 1028 1028;" xml:space="preserve">
<style type="text/css">
	.st0{fill:#FFFFFF;}
	.st1{fill:url(#SVGID_1_);}
	.st2{fill:url(#SVGID_2_);}
</style>
<title>ziyuan 1</title>
<circle class="st0" cx="514" cy="514" r="514"/>
<g>
	<linearGradient id="SVGID_1_" gradientUnits="userSpaceOnUse" x1="316" y1="376.0461" x2="711.5305" y2="376.0461">
		<stop  offset="0" style="stop-color:#2E333B"/>
		<stop  offset="1" style="stop-color:#575859"/>
	</linearGradient>
	<path class="st1" d="M327.9,371.7l213.5-123.3c7.4-4.3,16.4-4.3,23.8,0l134.5,77.6c11.4,6.6,15.3,21.1,8.7,32.5
		c-1,1.8-2.3,3.4-3.7,4.9L659,409.2c-7.6,7.6-19.4,9.2-28.7,3.8l-64.9-37.5c-7.5-4.3-16.8-4.3-24.3,0L316,506.9V392.3
		C316,383.8,320.5,375.9,327.9,371.7z"/>
	<linearGradient id="SVGID_2_" gradientUnits="userSpaceOnUse" x1="316" y1="625.3839" x2="711.9783" y2="625.3839">
		<stop  offset="0" style="stop-color:#2E333B"/>
		<stop  offset="1" style="stop-color:#575859"/>
	</linearGradient>
	<path class="st2" d="M700.1,701.7l-135,77.9c-7.3,4.3-16.4,4.3-23.8,0L327.9,656.3c-7.4-4.2-11.9-12.1-11.9-20.6V531.8L426,468
		v104.2c0,8.5,4.5,16.3,11.9,20.6l103.5,59.7c7.3,4.3,16.4,4.3,23.8,0l65.5-37.8c9.3-5.4,21.1-3.8,28.7,3.8l45.7,45.8
		c9.3,9.3,9.3,24.3,0,33.6C703.6,699.3,701.9,700.6,700.1,701.7z"/>
</g>
</svg>
