<?xml version="1.0" encoding="utf-8"?>
<!-- Generator: Adobe Illustrator 24.0.1, SVG Export Plug-In . SVG Version: 6.00 Build 0)  -->
<svg version="1.1" id="_160_data_arranging_outline"
	 xmlns="http://www.w3.org/2000/svg" xmlns:xlink="http://www.w3.org/1999/xlink" x="0px" y="0px" viewBox="0 0 406 306"
	 style="enable-background:new 0 0 406 306;" xml:space="preserve">
<style type="text/css">
	.st0{fill:#F7F7F7;}
	.st1{fill:#093F68;}
	.st2{fill:#FA8C16;}
	.st3{fill:#FFFFFF;}
	.st4{fill:#DFEAEF;}
	.st5{fill:#FFBC0E;}
	.st6{fill:#F56132;}
</style>
<g>
	<path class="st0" d="M371.6,63.6v187.9c0,6.2-4.9,11.2-11,11.2H44.2c-6.1,0-11-5-11-11.2l0,0V47c0-8.8,7-15.9,15.6-15.9h123.7
		c3.9,0,7.6,1.5,10.4,4.2l18.2,17h159.5C366.7,52.3,371.6,57.3,371.6,63.6C371.6,63.5,371.6,63.6,371.6,63.6z"/>
	<path class="st1" d="M360.6,264.5H44.2c-7,0-12.7-5.8-12.7-13V47c0-9.8,7.8-17.7,17.3-17.7h123.7c4.3,0,8.5,1.6,11.7,4.6l17.7,16.6
		h158.8c7,0,12.7,5.8,12.7,13v187.9c0,7.2-5.7,13.1-12.7,13.1C360.7,264.5,360.7,264.5,360.6,264.5z M48.7,32.9
		c-7.7,0-13.9,6.3-13.9,14.1v204.5c0,5.2,4.2,9.5,9.3,9.5l0,0h316.5c5.1,0,9.3-4.2,9.3-9.5v-188c0-5.2-4.2-9.5-9.3-9.5H201.1
		c-0.4,0-0.9-0.2-1.2-0.5l-18.2-17c-2.5-2.4-5.9-3.7-9.3-3.7H48.7z"/>
	<path class="st2" d="M141.9,212.9H76c-1.9,0-3.5-1.6-3.5-3.5v-61.9l16.1-17.7h53.2c1.9,0,3.5,1.6,3.5,3.5v76.2
		C145.2,211.4,143.7,212.9,141.9,212.9z"/>
	<path class="st1" d="M141.9,214.7H76c-2.9,0-5.2-2.4-5.2-5.3v-61.9c0-0.4,0.2-0.9,0.5-1.2l16.1-17.7c0.3-0.4,0.8-0.6,1.3-0.6h53.2
		c2.9,0,5.2,2.4,5.2,5.3v76.2C147,212.4,144.7,214.7,141.9,214.7z M74.3,148.2v61.3c0,1,0.8,1.8,1.7,1.8h65.8c1,0,1.7-0.8,1.7-1.8
		v-76.2c0-1-0.8-1.8-1.7-1.8H89.5L74.3,148.2z"/>
	<polygon class="st0" points="72.6,147.5 88.4,147.5 88.4,129.8 	"/>
	<path class="st1" d="M88.4,149.2H72.6c-0.7,0-1.3-0.4-1.6-1c-0.3-0.6-0.2-1.4,0.3-1.9l15.9-17.7c0.7-0.7,1.7-0.7,2.4-0.1
		c0.3,0.3,0.5,0.8,0.5,1.3v17.7C90.2,148.4,89.4,149.2,88.4,149.2z M76.5,145.7h10.2v-11.3L76.5,145.7z"/>
	<path class="st3" d="M132.1,162.4H86.3c-1,0-1.7-0.8-1.7-1.8s0.8-1.8,1.7-1.8h45.8c1,0,1.7,0.8,1.7,1.8S133.1,162.4,132.1,162.4z"
		/>
	<path class="st3" d="M132.1,173.9H86.3c-1,0-1.7-0.8-1.7-1.8c0-1,0.8-1.8,1.7-1.8h45.8c1,0,1.7,0.8,1.7,1.8
		C133.8,173.1,133.1,173.9,132.1,173.9z"/>
	<path class="st3" d="M132.1,185.4H86.3c-1,0-1.7-0.8-1.7-1.8c0-1,0.8-1.8,1.7-1.8h45.8c1,0,1.7,0.8,1.7,1.8
		C133.8,184.6,133.1,185.4,132.1,185.4z"/>
	<path class="st3" d="M118.9,196.9H86.3c-1,0-1.7-0.8-1.7-1.8c0-1,0.8-1.8,1.7-1.8h32.7c1,0,1.7,0.8,1.7,1.8
		C120.7,196.1,119.9,196.9,118.9,196.9z"/>
	<path class="st2" d="M133.1,200.9H67.3c-1.9,0-3.5-1.6-3.5-3.5v-61.9l16.1-17.7h53.2c1.9,0,3.5,1.6,3.5,3.5v76.2
		C136.5,199.3,134.9,200.8,133.1,200.9z"/>
	<path class="st1" d="M133.1,202.6H67.3c-2.9,0-5.2-2.4-5.2-5.3v-61.9c0-0.4,0.2-0.9,0.5-1.2l16.1-17.7c0.3-0.4,0.8-0.6,1.3-0.6
		h53.2c2.9,0,5.2,2.4,5.2,5.3l0,0v76.2C138.2,200.3,135.9,202.6,133.1,202.6z M65.5,136.1v61.3c0,1,0.8,1.8,1.7,1.8h65.8
		c1,0,1.7-0.8,1.7-1.8v-76.2c0-1-0.8-1.8-1.7-1.8H80.7L65.5,136.1z"/>
	<polygon class="st0" points="63.8,135.4 79.7,135.4 79.7,117.7 	"/>
	<path class="st1" d="M79.7,137.2H63.8c-1,0-1.7-0.8-1.7-1.8c0-0.4,0.2-0.8,0.4-1.2l15.8-17.7c0.6-0.7,1.7-0.8,2.4-0.1
		c0.4,0.3,0.6,0.8,0.6,1.3v17.7C81.4,136.4,80.6,137.2,79.7,137.2z M67.8,133.6H78v-11.3L67.8,133.6z"/>
	<path class="st3" d="M123.3,150.4H77.5c-1,0-1.7-0.8-1.7-1.8c0-1,0.8-1.8,1.7-1.8h45.8c1,0,1.7,0.8,1.7,1.8
		C125,149.6,124.3,150.4,123.3,150.4L123.3,150.4z"/>
	<path class="st3" d="M123.3,161.9H77.5c-1,0-1.7-0.8-1.7-1.8c0-1,0.8-1.8,1.7-1.8h45.8c1,0,1.7,0.8,1.7,1.8
		C125,161.1,124.3,161.9,123.3,161.9L123.3,161.9z"/>
	<path class="st3" d="M123.3,173.4H77.5c-1,0-1.7-0.8-1.7-1.8s0.8-1.8,1.7-1.8h45.8c1,0,1.7,0.8,1.7,1.8S124.3,173.4,123.3,173.4
		L123.3,173.4z"/>
	<path class="st3" d="M110.1,184.9H77.5c-1,0-1.7-0.8-1.7-1.8s0.8-1.8,1.7-1.8h32.7c1,0,1.7,0.8,1.7,1.8S111.1,184.9,110.1,184.9z"
		/>
	<path class="st3" d="M124.3,188.8H58.5c-1.9,0-3.5-1.6-3.5-3.5v-61.9l16.1-17.7h53.2c1.9,0,3.5,1.6,3.5,3.5v76.2
		C127.7,187.3,126.2,188.8,124.3,188.8z"/>
	<path class="st1" d="M124.3,190.6H58.5c-2.9,0-5.2-2.4-5.2-5.3v-61.9c0-0.4,0.2-0.9,0.5-1.2l16.1-17.7c0.3-0.4,0.8-0.6,1.3-0.6
		h53.2c2.9,0,5.2,2.4,5.2,5.3v76.2C129.4,188.3,127.1,190.6,124.3,190.6z M56.8,124.1v61.3c0,1,0.8,1.8,1.7,1.8h65.8
		c1,0,1.7-0.8,1.7-1.8v-76.2c0-1-0.8-1.8-1.7-1.8H71.9L56.8,124.1z"/>
	<polygon class="st2" points="55.1,123.3 70.9,123.3 70.9,105.7 	"/>
	<path class="st1" d="M70.9,125.1H55.1c-1,0-1.7-0.8-1.7-1.8c0-0.4,0.2-0.9,0.4-1.2l15.8-17.7c0.5-0.5,1.2-0.7,1.9-0.4
		c0.7,0.3,1.1,0.9,1.1,1.6v17.7C72.6,124.3,71.9,125.1,70.9,125.1z M59,121.6h10.2v-11.3L59,121.6z"/>
	<path class="st4" d="M114.5,138.3H68.7c-1,0-1.7-0.8-1.7-1.8s0.8-1.8,1.7-1.8h45.8c1,0,1.7,0.8,1.7,1.8S115.5,138.3,114.5,138.3
		L114.5,138.3z"/>
	<path class="st4" d="M114.5,149.8H68.7c-1,0-1.7-0.8-1.7-1.8c0-1,0.8-1.8,1.7-1.8h45.8c1,0,1.7,0.8,1.7,1.8
		C116.3,149,115.5,149.8,114.5,149.8L114.5,149.8z"/>
	<path class="st4" d="M114.5,161.3H68.7c-1,0-1.7-0.8-1.7-1.8c0-1,0.8-1.8,1.7-1.8h45.8c1,0,1.7,0.8,1.7,1.8
		C116.3,160.5,115.5,161.3,114.5,161.3L114.5,161.3z"/>
	<path class="st4" d="M101.4,172.8H68.7c-1,0-1.7-0.8-1.7-1.8c0-1,0.8-1.8,1.7-1.8h32.7c1,0,1.7,0.8,1.7,1.8
		C103.1,172,102.3,172.8,101.4,172.8z"/>
	<path class="st5" d="M244.7,212.9h-65.8c-1.9,0-3.5-1.6-3.5-3.5v-61.9l16.1-17.7h53.2c1.9,0,3.5,1.6,3.5,3.5v76.2
		C248.1,211.4,246.5,212.9,244.7,212.9z"/>
	<path class="st1" d="M244.7,214.7h-65.8c-2.9,0-5.2-2.4-5.2-5.3v-61.9c0-0.4,0.2-0.9,0.5-1.2l16.1-17.7c0.3-0.4,0.8-0.6,1.3-0.6
		h53.2c2.9,0,5.2,2.4,5.2,5.3v76.2C249.8,212.4,247.5,214.7,244.7,214.7z M177.1,148.2v61.3c0,1,0.8,1.8,1.7,1.8h65.8
		c1,0,1.7-0.8,1.7-1.8v-76.2c0-1-0.8-1.8-1.7-1.8h-52.4L177.1,148.2z"/>
	<polygon class="st0" points="175.4,147.5 191.3,147.5 191.3,129.8 	"/>
	<path class="st1" d="M191.3,149.2h-15.8c-1,0-1.7-0.8-1.7-1.8c0-0.4,0.2-0.8,0.4-1.2l15.8-17.7c0.7-0.7,1.7-0.7,2.4-0.1
		c0.3,0.3,0.5,0.8,0.5,1.3v17.7C193,148.4,192.2,149.2,191.3,149.2z M179.3,145.7h10.2v-11.3L179.3,145.7z"/>
	<path class="st3" d="M234.9,162.4h-45.8c-1,0-1.7-0.8-1.7-1.8s0.8-1.8,1.7-1.8h45.8c1,0,1.7,0.8,1.7,1.8S235.9,162.4,234.9,162.4z"
		/>
	<path class="st3" d="M234.9,173.9h-45.8c-1,0-1.7-0.8-1.7-1.8c0-1,0.8-1.8,1.7-1.8h45.8c1,0,1.7,0.8,1.7,1.8
		C236.6,173.1,235.9,173.9,234.9,173.9z"/>
	<path class="st3" d="M234.9,185.4h-45.8c-1,0-1.7-0.8-1.7-1.8c0-1,0.8-1.8,1.7-1.8h45.8c1,0,1.7,0.8,1.7,1.8
		C236.6,184.6,235.9,185.4,234.9,185.4z"/>
	<path class="st3" d="M221.7,196.9h-32.7c-1,0-1.7-0.8-1.7-1.8c0-1,0.8-1.8,1.7-1.8h32.7c1,0,1.7,0.8,1.7,1.8
		C223.5,196.1,222.7,196.9,221.7,196.9z"/>
	<path class="st5" d="M235.9,200.9h-65.8c-1.9,0-3.5-1.6-3.5-3.5v-61.9l16.1-17.7h53.2c1.9,0,3.5,1.6,3.5,3.5v76.2
		C239.3,199.3,237.8,200.8,235.9,200.9z"/>
	<path class="st1" d="M235.9,202.6h-65.8c-2.9,0-5.2-2.4-5.2-5.3v-61.9c0-0.4,0.2-0.9,0.5-1.2l16.1-17.7c0.3-0.4,0.8-0.6,1.3-0.6
		h53.2c2.9,0,5.2,2.4,5.2,5.3l0,0v76.2C241,200.3,238.7,202.6,235.9,202.6z M168.3,136.1v61.3c0,1,0.8,1.8,1.7,1.8h65.8
		c1,0,1.7-0.8,1.7-1.8v-76.2c0-1-0.8-1.8-1.7-1.8h-52.4L168.3,136.1z"/>
	<polygon class="st0" points="166.6,135.4 182.5,135.4 182.5,117.7 	"/>
	<path class="st1" d="M182.5,137.2h-15.8c-1,0-1.7-0.8-1.7-1.8c0-0.4,0.2-0.9,0.4-1.2l15.8-17.7c0.6-0.7,1.7-0.8,2.4-0.1
		c0.4,0.3,0.6,0.8,0.6,1.3v17.7C184.2,136.4,183.4,137.2,182.5,137.2z M170.6,133.6h10.2v-11.3L170.6,133.6z"/>
	<path class="st3" d="M226.1,150.4h-45.8c-1,0-1.7-0.8-1.7-1.8c0-1,0.8-1.8,1.7-1.8h45.8c1,0,1.7,0.8,1.7,1.8
		C227.9,149.6,227.1,150.4,226.1,150.4z"/>
	<path class="st3" d="M226.1,161.9h-45.8c-1,0-1.7-0.8-1.7-1.8c0-1,0.8-1.8,1.7-1.8h45.8c1,0,1.7,0.8,1.7,1.8
		C227.9,161.1,227.1,161.9,226.1,161.9z"/>
	<path class="st3" d="M226.1,173.4h-45.8c-1,0-1.7-0.8-1.7-1.8s0.8-1.8,1.7-1.8h45.8c1,0,1.7,0.8,1.7,1.8S227.1,173.4,226.1,173.4z"
		/>
	<path class="st3" d="M213,184.9h-32.7c-1,0-1.7-0.8-1.7-1.8s0.8-1.8,1.7-1.8H213c1,0,1.7,0.8,1.7,1.8S213.9,184.9,213,184.9z"/>
	<path class="st3" d="M227.1,188.8h-65.8c-1.9,0-3.5-1.6-3.5-3.5v-61.9l16.1-17.7h53.2c1.9,0,3.5,1.6,3.5,3.5v76.2
		C230.5,187.3,229,188.8,227.1,188.8z"/>
	<path class="st1" d="M227.1,190.6h-65.8c-2.9,0-5.2-2.4-5.2-5.3v-61.9c0-0.4,0.2-0.9,0.5-1.2l16.1-17.7c0.3-0.4,0.8-0.6,1.3-0.6
		h53.2c2.9,0,5.2,2.4,5.2,5.3v76.2C232.3,188.3,230,190.6,227.1,190.6z M159.6,124.1v61.3c0,1,0.8,1.8,1.7,1.8h65.8
		c1,0,1.7-0.8,1.7-1.8v-76.2c0-1-0.8-1.8-1.7-1.8h-52.4L159.6,124.1z"/>
	<polygon class="st5" points="157.9,123.3 173.7,123.3 173.7,105.7 	"/>
	<path class="st1" d="M173.7,125.1h-15.8c-1,0-1.7-0.8-1.7-1.8c0-0.4,0.2-0.8,0.4-1.1l15.8-17.7c0.5-0.5,1.2-0.7,1.9-0.4
		c0.7,0.3,1.1,0.9,1.1,1.6v17.7C175.5,124.4,174.7,125.1,173.7,125.1C173.7,125.1,173.7,125.1,173.7,125.1z M161.8,121.6H172v-11.3
		L161.8,121.6z"/>
	<path class="st4" d="M217.4,138.3h-45.8c-1,0-1.7-0.8-1.7-1.8s0.8-1.8,1.7-1.8h45.8c1,0,1.7,0.8,1.7,1.8S218.3,138.3,217.4,138.3z"
		/>
	<path class="st4" d="M217.4,149.8h-45.8c-1,0-1.7-0.8-1.7-1.8c0-1,0.8-1.8,1.7-1.8h45.8c1,0,1.7,0.8,1.7,1.8
		C219.1,149,218.3,149.8,217.4,149.8z"/>
	<path class="st4" d="M217.4,161.3h-45.8c-1,0-1.7-0.8-1.7-1.8c0-1,0.8-1.8,1.7-1.8h45.8c1,0,1.7,0.8,1.7,1.8
		C219.1,160.5,218.3,161.3,217.4,161.3z"/>
	<path class="st4" d="M204.2,172.8h-32.7c-1,0-1.7-0.8-1.7-1.8c0-1,0.8-1.8,1.7-1.8h32.7c1,0,1.7,0.8,1.7,1.8
		C205.9,172,205.1,172.8,204.2,172.8z"/>
	<path class="st6" d="M347.5,212.9h-65.8c-1.9,0-3.5-1.6-3.5-3.5v-61.9l16.1-17.7h53.2c1.9,0,3.5,1.6,3.5,3.5v76.2
		C350.9,211.4,349.4,212.9,347.5,212.9z"/>
	<path class="st1" d="M347.5,214.7h-65.8c-2.9,0-5.2-2.4-5.2-5.3v-61.9c0-0.4,0.2-0.9,0.5-1.2l16.1-17.7c0.3-0.4,0.8-0.6,1.3-0.6
		h53.2c2.9,0,5.2,2.4,5.2,5.3v76.2C352.6,212.4,350.3,214.7,347.5,214.7z M279.9,148.2v61.3c0,1,0.8,1.8,1.7,1.8h65.8
		c1,0,1.7-0.8,1.7-1.8v-76.2c0-1-0.8-1.8-1.7-1.8h-52.4L279.9,148.2z"/>
	<polygon class="st0" points="278.2,147.5 294.1,147.5 294.1,129.8 	"/>
	<path class="st1" d="M294.1,149.2h-15.8c-1,0-1.7-0.8-1.7-1.8c0-0.4,0.2-0.8,0.4-1.2l15.8-17.7c0.7-0.7,1.7-0.7,2.4-0.1
		c0.3,0.3,0.5,0.8,0.5,1.3v17.7C295.8,148.4,295,149.2,294.1,149.2z M282.2,145.7h10.2v-11.3L282.2,145.7z"/>
	<path class="st3" d="M337.7,162.4h-45.8c-1,0-1.7-0.8-1.7-1.8s0.8-1.8,1.7-1.8h45.8c1,0,1.7,0.8,1.7,1.8S338.7,162.4,337.7,162.4z"
		/>
	<path class="st3" d="M337.7,173.9h-45.8c-1,0-1.7-0.8-1.7-1.8c0-1,0.8-1.8,1.7-1.8h45.8c1,0,1.7,0.8,1.7,1.8
		C339.4,173.1,338.7,173.9,337.7,173.9z"/>
	<path class="st3" d="M337.7,185.4h-45.8c-1,0-1.7-0.8-1.7-1.8c0-1,0.8-1.8,1.7-1.8h45.8c1,0,1.7,0.8,1.7,1.8
		C339.4,184.6,338.7,185.4,337.7,185.4z"/>
	<path class="st3" d="M324.6,196.9h-32.7c-1,0-1.7-0.8-1.7-1.8c0-1,0.8-1.8,1.7-1.8h32.7c1,0,1.7,0.8,1.7,1.8
		C326.4,196.1,325.6,196.9,324.6,196.9z"/>
	<path class="st6" d="M338.7,200.9h-65.8c-1.9,0-3.5-1.6-3.5-3.5v-61.9l16.1-17.7h53.2c1.9,0,3.5,1.6,3.5,3.5v76.2
		C342.1,199.3,340.6,200.8,338.7,200.9z"/>
	<path class="st1" d="M338.7,202.6h-65.8c-2.9,0-5.2-2.4-5.2-5.3v-61.9c0-0.4,0.2-0.9,0.5-1.2l16.1-17.7c0.3-0.4,0.8-0.6,1.3-0.6
		h53.2c2.9,0,5.2,2.4,5.2,5.3l0,0v76.2C343.8,200.3,341.5,202.6,338.7,202.6z M271.2,136.1v61.3c0,1,0.8,1.8,1.7,1.8h65.8
		c1,0,1.7-0.8,1.7-1.8v-76.2c0-1-0.8-1.8-1.7-1.8h-52.4L271.2,136.1z"/>
	<polygon class="st0" points="269.5,135.4 285.3,135.4 285.3,117.7 	"/>
	<path class="st1" d="M285.3,137.2h-15.8c-1,0-1.7-0.8-1.7-1.8c0-0.4,0.2-0.9,0.4-1.2l15.8-17.7c0.6-0.7,1.7-0.8,2.4-0.1
		c0.4,0.3,0.6,0.8,0.6,1.3v17.7C287,136.4,286.3,137.2,285.3,137.2z M273.4,133.6h10.2v-11.3L273.4,133.6z"/>
	<path class="st3" d="M329,150.4h-45.9c-1,0-1.7-0.8-1.7-1.8c0-1,0.8-1.8,1.7-1.8H329c1,0,1.7,0.8,1.7,1.8
		C330.7,149.6,329.9,150.4,329,150.4z"/>
	<path class="st3" d="M329,161.9h-45.9c-1,0-1.7-0.8-1.7-1.8c0-1,0.8-1.8,1.7-1.8H329c1,0,1.7,0.8,1.7,1.8
		C330.7,161.1,329.9,161.9,329,161.9z"/>
	<path class="st3" d="M329,173.4h-45.9c-1,0-1.7-0.8-1.7-1.8s0.8-1.8,1.7-1.8H329c1,0,1.7,0.8,1.7,1.8S329.9,173.4,329,173.4z"/>
	<path class="st3" d="M315.8,184.9h-32.7c-1,0-1.7-0.8-1.7-1.8s0.8-1.8,1.7-1.8h32.7c1,0,1.7,0.8,1.7,1.8S316.7,184.9,315.8,184.9
		L315.8,184.9z"/>
	<path class="st3" d="M329.9,188.8H264c-1.9,0-3.5-1.6-3.5-3.5v-61.9l16.1-17.7h53.2c1.9,0,3.5,1.6,3.5,3.5v76.2
		C333.2,187.2,331.8,188.7,329.9,188.8z"/>
	<path class="st1" d="M329.9,190.6H264c-2.9,0-5.2-2.4-5.2-5.3v-61.9c0-0.4,0.2-0.9,0.5-1.2l16.1-17.7c0.3-0.4,0.8-0.6,1.3-0.6h53.2
		c2.9,0,5.2,2.4,5.2,5.3v76.2C334.9,188.2,332.7,190.5,329.9,190.6z M262.4,124.1v61.3c0,1,0.8,1.8,1.7,1.8h65.8
		c1,0,1.7-0.8,1.7-1.8v-76.2c0-1-0.8-1.8-1.7-1.8h-52.4L262.4,124.1z"/>
	<polygon class="st6" points="260.7,123.3 276.5,123.3 276.5,105.7 	"/>
	<path class="st1" d="M276.5,125.1h-15.8c-1,0-1.7-0.8-1.7-1.8c0-0.4,0.2-0.9,0.4-1.2l15.8-17.7c0.5-0.5,1.2-0.7,1.9-0.4
		c0.7,0.3,1.1,0.9,1.1,1.6v17.7C278.2,124.3,277.5,125.1,276.5,125.1z M264.6,121.6h10.2v-11.3L264.6,121.6z"/>
	<path class="st4" d="M320.2,138.3h-45.8c-1,0-1.7-0.8-1.7-1.8s0.8-1.8,1.7-1.8h45.8c1,0,1.7,0.8,1.7,1.8S321.2,138.3,320.2,138.3
		L320.2,138.3z"/>
	<path class="st4" d="M320.2,149.8h-45.8c-1,0-1.7-0.8-1.7-1.8c0-1,0.8-1.8,1.7-1.8h45.8c1,0,1.7,0.8,1.7,1.8
		C322,149,321.2,149.8,320.2,149.8L320.2,149.8z"/>
	<path class="st4" d="M320.2,161.3h-45.8c-1,0-1.7-0.8-1.7-1.8c0-1,0.8-1.8,1.7-1.8h45.8c1,0,1.7,0.8,1.7,1.8
		C322,160.5,321.2,161.3,320.2,161.3L320.2,161.3z"/>
	<path class="st4" d="M307,172.8h-32.6c-1,0-1.7-0.8-1.7-1.8c0-1,0.8-1.8,1.7-1.8h32.7c1,0,1.7,0.8,1.7,1.8
		C308.8,172,308,172.8,307,172.8L307,172.8z"/>
	<path class="st2" d="M371.6,63.6v7.3H33.2V47c0-8.8,7-15.9,15.6-15.9h123.7c3.9,0,7.6,1.5,10.4,4.2l18.2,17h159.5
		C366.7,52.3,371.6,57.3,371.6,63.6C371.6,63.5,371.6,63.6,371.6,63.6z"/>
	<path class="st1" d="M371.6,72.7H33.2c-1,0-1.7-0.8-1.7-1.8V47c0-9.8,7.8-17.7,17.3-17.7h123.7c4.3,0,8.5,1.6,11.7,4.6l17.7,16.6
		h158.8c7,0,12.7,5.8,12.7,13v7.4C373.4,71.9,372.7,72.7,371.6,72.7C371.7,72.7,371.7,72.7,371.6,72.7z M34.9,69.2h335v-5.6
		c0-5.2-4.2-9.5-9.3-9.5H201.1c-0.4,0-0.9-0.2-1.2-0.5l-18.2-17c-2.5-2.4-5.9-3.7-9.3-3.7H48.7c-7.7,0-13.9,6.3-13.9,14.1L34.9,69.2
		z"/>
	<path class="st4" d="M135.3,239.7H82.9c-1,0-1.7-0.8-1.7-1.8c0-1,0.8-1.8,1.7-1.8h52.4c1,0,1.7,0.8,1.7,1.8
		C137,238.9,136.2,239.7,135.3,239.7z"/>
	<path class="st4" d="M234.8,239.7h-52.4c-1,0-1.7-0.8-1.7-1.8c0-1,0.8-1.8,1.7-1.8h52.4c1,0,1.7,0.8,1.7,1.8
		C236.5,238.9,235.7,239.7,234.8,239.7L234.8,239.7z"/>
	<path class="st4" d="M334.3,239.7h-52.4c-1,0-1.7-0.8-1.7-1.8c0-1,0.8-1.8,1.7-1.8h52.4c1,0,1.7,0.8,1.7,1.8
		C336,238.9,335.3,239.7,334.3,239.7z"/>
</g>
</svg>
